<?xml version="1.0" encoding="UTF-8" ?>
<!DOCTYPE svg PUBLIC "-//W3C//DTD SVG 1.1//EN" "http://www.w3.org/Graphics/SVG/1.1/DTD/svg11.dtd">
<svg width="478pt" height="478pt" viewBox="0 0 478 478" version="1.1" xmlns="http://www.w3.org/2000/svg">
<g id="#ffffffff">
</g>
<g id="#3f74dcff">
<path fill="#3f74dc" opacity="1.00" d=" M 84.12 203.07 C 85.13 202.12 86.40 201.53 87.65 200.94 C 87.83 202.74 89.18 204.92 87.48 206.38 C 81.14 213.48 76.94 222.47 75.93 231.96 C 74.99 244.11 74.76 257.18 80.86 268.16 C 82.85 272.13 85.94 275.38 88.25 279.15 C 88.21 280.46 88.05 281.75 87.77 283.04 C 84.35 282.31 82.16 279.47 80.05 276.94 C 75.69 271.64 72.26 265.53 70.25 258.97 C 68.19 250.82 68.16 242.31 68.72 233.98 C 69.99 222.36 75.22 210.82 84.12 203.07 Z" />
<path fill="#3f74dc" opacity="1.00" d=" M 233.05 200.86 C 239.08 203.60 242.88 209.41 246.02 214.99 C 252.18 225.84 253.38 238.83 252.02 251.05 C 250.75 262.90 244.60 273.92 235.86 281.90 C 235.12 282.61 233.56 283.22 232.83 282.22 C 232.35 281.05 232.41 279.75 232.27 278.52 C 239.99 271.63 243.88 261.16 244.83 251.03 C 246.34 238.31 244.93 224.81 238.46 213.55 C 236.76 210.65 234.29 208.31 232.49 205.49 C 232.11 203.93 232.72 202.37 233.05 200.86 Z" />
<path fill="#3f74dc" opacity="1.00" d=" M 372.01 227.00 C 375.47 219.22 376.62 210.56 380.52 202.97 C 383.49 211.34 385.63 220.00 389.03 228.21 C 397.71 228.43 406.40 228.19 415.09 228.34 C 408.58 233.88 401.14 238.22 394.49 243.57 C 394.00 247.18 396.27 250.48 397.11 253.90 C 398.53 259.28 400.98 264.34 401.94 269.84 C 396.96 266.19 392.09 262.41 386.98 258.95 C 384.67 257.49 382.72 255.34 380.13 254.42 C 372.42 258.99 365.66 265.04 358.15 269.93 C 360.88 261.29 364.24 252.85 366.53 244.07 C 359.72 238.70 352.07 234.38 345.78 228.37 C 353.20 228.19 360.63 228.36 368.06 228.31 C 369.35 228.11 371.45 228.61 372.01 227.00 Z" />
<path fill="#3f74dc" opacity="1.00" d=" M 199.62 206.44 C 201.39 206.45 203.17 206.41 204.94 206.32 C 204.70 208.64 204.90 211.34 203.05 213.10 C 198.43 218.37 189.33 218.52 184.38 213.63 C 182.45 211.83 182.12 209.08 181.50 206.66 C 183.32 206.60 185.15 206.59 186.98 206.56 C 187.98 208.64 188.77 211.22 191.11 212.19 C 192.66 212.57 194.32 212.57 195.87 212.17 C 198.24 211.26 198.72 208.51 199.62 206.44 Z" />
<path fill="#3f74dc" opacity="1.00" d=" M 115.42 206.54 C 116.95 206.48 118.49 206.49 120.02 206.58 C 121.95 208.96 123.09 213.08 127.00 212.46 C 130.87 213.03 131.78 208.67 133.95 206.55 C 135.49 206.48 137.02 206.50 138.56 206.59 C 138.70 211.92 134.30 216.65 129.01 217.02 C 122.63 218.37 114.64 213.73 115.42 206.54 Z" />
<path fill="#3f74dc" opacity="1.00" d=" M 287.05 219.05 C 291.54 214.30 298.77 213.63 304.83 215.07 C 312.19 217.12 317.48 224.40 317.74 231.95 C 317.94 236.64 318.05 241.57 315.89 245.88 C 312.20 254.59 303.68 260.18 294.92 262.90 C 290.08 264.29 285.06 265.78 279.96 265.25 C 280.15 263.43 280.10 261.56 280.67 259.81 C 289.22 258.74 298.24 256.82 304.75 250.76 C 310.44 245.73 312.69 237.47 310.78 230.18 C 309.97 226.09 307.12 222.42 303.23 220.85 C 298.81 219.59 293.09 220.10 290.55 224.46 C 289.35 228.58 290.55 232.96 293.24 236.22 C 291.80 237.50 289.72 239.79 287.67 238.35 C 282.78 233.36 281.81 224.17 287.05 219.05 Z" />
<path fill="#3f74dc" opacity="1.00" d=" M 145.88 223.27 C 148.08 223.40 150.28 223.44 152.49 223.40 C 152.94 226.08 153.24 228.89 154.61 231.29 C 156.78 234.64 161.87 235.46 164.95 232.90 C 167.85 230.67 168.33 226.76 168.56 223.36 C 170.67 223.42 172.78 223.40 174.89 223.32 C 175.94 230.08 171.91 236.97 165.51 239.32 C 162.23 239.94 158.78 239.95 155.51 239.30 C 149.14 236.92 145.11 229.99 145.88 223.27 Z" />
</g>
</svg>
